<?xml version="1.0" encoding="utf-8"?>
<!-- Generator: Adobe Illustrator 21.0.2, SVG Export Plug-In . SVG Version: 6.00 Build 0)  -->
<svg version="1.1" id="Layer_1" xmlns="http://www.w3.org/2000/svg" xmlns:xlink="http://www.w3.org/1999/xlink" x="0px" y="0px"
	 viewBox="0 0 100 100" style="enable-background:new 0 0 100 100;" xml:space="preserve">
<path d="M89,58c0-3.9-3.1-7-7-7h-6V39c0-1.1-0.9-2-2-2h-6V22h1c0.8,0,1.6-0.5,1.9-1.3l2-5C73,15.5,73,15.3,73,15V7c0-1.1-0.9-2-2-2
	H61c-1.1,0-2,0.9-2,2v8c0,0.3,0,0.5,0.1,0.7l2,5c0.3,0.8,1,1.3,1.9,1.3h1v15h-6c-1.1,0-2,0.9-2,2v2h-9c-0.1,0-0.3,0-0.4,0
	c-0.1,0-0.1,0-0.2,0c-0.1,0-0.1,0-0.2,0.1c-0.1,0-0.1,0.1-0.2,0.1c-0.1,0-0.1,0.1-0.2,0.1c-0.1,0.1-0.2,0.2-0.3,0.3L30.2,57H27v-6
	c0-1.1-0.9-2-2-2H13c-1.1,0-2,0.9-2,2v42c0,1.1,0.9,2,2,2h12c1.1,0,2-0.9,2-2v-4.1l7.8,5.7c0,0,0,0,0,0c0.2,0.1,0.3,0.2,0.5,0.3
	c0,0,0.1,0,0.1,0c0.2,0,0.4,0.1,0.5,0.1c0,0,0,0,0,0c0,0,0,0,0,0s0,0,0,0h36c3.9,0,7-3.1,7-7c0-1.2-0.3-2.3-0.9-3.3
	C81,83.7,83,81.1,83,78c0-1.2-0.3-2.3-0.9-3.3C85,73.7,87,71.1,87,68c0-1.5-0.5-2.9-1.3-4.1C87.7,62.7,89,60.5,89,58z M63,9h6v5.6
	L67.6,18h-3.3L63,14.6V9z M60,41h12v10H60V41z M23,91h-8V53h8V91z M80,71h-4h-6h-4c-1.1,0-2,0.9-2,2s0.9,2,2,2h4h6c1.7,0,3,1.3,3,3
	s-1.3,3-3,3h-4h-6h-2c-1.1,0-2,0.9-2,2s0.9,2,2,2h2h6c1.7,0,3,1.3,3,3s-1.3,3-3,3H36.6L27,84V61h4c0.1,0,0.3,0,0.4,0
	c0.1,0,0.1,0,0.2-0.1c0.1,0,0.1,0,0.2-0.1c0.1,0,0.1-0.1,0.2-0.1c0.1,0,0.1-0.1,0.2-0.1c0.1-0.1,0.2-0.2,0.3-0.3L47.8,45H56v8
	c0,1.1,0.9,2,2,2h16h8c1.7,0,3,1.3,3,3s-1.3,3-3,3h-2H70h-2c-1.1,0-2,0.9-2,2s0.9,2,2,2h2h10c1.7,0,3,1.3,3,3S81.7,71,80,71z"/>
</svg>
